<svg width="39" height="37" viewBox="0 0 39 37" fill="none" xmlns="http://www.w3.org/2000/svg">
<path opacity="0.5" d="M1.88796 6.65013e-07C1.50219 -0.000364737 1.1256 0.14986 0.808954 0.430426C0.492307 0.710992 0.250823 1.10841 0.117053 1.56912C-0.0167179 2.02983 -0.0363448 2.53168 0.0608156 3.00703C0.157976 3.48239 0.367254 3.90839 0.660442 4.22762L18.2683 23.4441C18.9727 24.2127 20.0165 24.2127 20.7234 23.4441L38.3313 4.22762C38.6245 3.90839 38.8337 3.48239 38.9309 3.00703C39.0281 2.53168 39.0084 2.02983 38.8747 1.56912C38.7409 1.10841 38.4994 0.710992 38.1828 0.430426C37.8661 0.14986 37.4895 -0.000364737 37.1038 6.65013e-07H1.88796Z" fill="white"/>
<path fill-rule="evenodd" clip-rule="evenodd" d="M0.454182 13.6501C0.615489 13.4105 0.812306 13.2136 1.03338 13.0709C1.25446 12.9282 1.49546 12.8423 1.74261 12.8182C1.98977 12.7941 2.23823 12.8323 2.47379 12.9305C2.70936 13.0287 2.92741 13.1851 3.11549 13.3907L19.4959 31.2652L35.8762 13.3907C36.0641 13.1829 36.2823 13.0245 36.5185 12.9246C36.7546 12.8247 37.0039 12.7852 37.252 12.8085C37.5002 12.8318 37.7423 12.9173 37.9643 13.0602C38.1864 13.2031 38.3841 13.4005 38.546 13.6411C38.7079 13.8817 38.8308 14.1606 38.9077 14.4619C38.9846 14.7632 39.0139 15.0809 38.9939 15.3967C38.974 15.7125 38.9051 16.0202 38.7914 16.3019C38.6777 16.5837 38.5213 16.8341 38.3313 17.0386L20.7234 36.255C20.3815 36.628 19.9461 36.8331 19.4959 36.8331C19.0456 36.8331 18.6102 36.628 18.2683 36.255L0.660446 17.0386C0.472236 16.8332 0.317659 16.5826 0.205551 16.3011C0.0934419 16.0196 0.0259985 15.7128 0.0070765 15.3981C-0.0118455 15.0834 0.0181242 14.7671 0.0952727 14.4671C0.172421 14.1672 0.295237 13.8896 0.456698 13.6501H0.454182Z" fill="white"/>
</svg>
